# xmcd
#
# Track frame offsets:
#	150
#	11494
#	25092
#	38516
#	52144
#	61691
#	75667
#	89306
#	103529
#	115826
#	127556
#	136988
#	146612
#	159457
#	166804
#	181006
#	192487
#	205293
#	219859
#	233599
#	246674
#	260576
#	274076
#	285700
#	297010
#	304278
#	320024
#	333121
#
# Disc length: 4621 seconds
#
# Revision: 1
# Processed by: cddbd v1.5.2PL0 Copyright (c) Steve Scherf et al.
# Submitted via: EasyCDDAExtractor 7.0.3.1
#
DISCID=84120b1c
DTITLE=Jimmy C. Newman - Cry, Cry, Darling
DYEAR=1900
DGENRE=Cajun
TTITLE0=Cry, Cry, Darling
TTITLE1=You Didn't Have to Go
TTITLE2=If You Tried As Hard To Love Me (As You Do To Break My Heart) 
TTITLE3=What Will I Do (If I Can't Have You)
TTITLE4=Let's Stay Together
TTITLE5=I'll Have To Burn the Letters
TTITLE6=Don't Say Goodbye
TTITLE7=If You Lose You'll Understand
TTITLE8=Again In Your Arms
TTITLE9=Words Can't Explain 
TTITLE10=Drunkard's Waltz
TTITLE11=Fais Do Do Two-Step
TTITLE12=Tolan Waltz
TTITLE13=Teiyut Two-Step
TTITLE14=Chere Petite
TTITLE15=Chuck's Waltz
TTITLE16=H-Brown Shuffle
TTITLE17=I Thank You
TTITLE18=Wondering
TTITLE19=Dreamland Island
TTITLE20=The More I Give, The More You Take
TTITLE21=Let Me Stay In Your Arms
TTITLE22=(I Know That) I've Made A Big Mistake
TTITLE23=I Don't Know What I'm Going To Do
TTITLE24=Great Big Fais-Do-Do
TTITLE25=Can It Be Right
TTITLE26=If You Tried As Hard To Love Me
TTITLE27=I'll Have To Burn The Letters
EXTD=
EXTT0=
EXTT1=
EXTT2=
EXTT3=
EXTT4=
EXTT5=
EXTT6=
EXTT7=
EXTT8=
EXTT9=
EXTT10=
EXTT11=
EXTT12=
EXTT13=
EXTT14=
EXTT15=
EXTT16=
EXTT17=
EXTT18=
EXTT19=
EXTT20=
EXTT21=
EXTT22=
EXTT23=
EXTT24=
EXTT25=
EXTT26=
EXTT27=
PLAYORDER=
